<mxfile host="app.diagrams.net" modified="2024-03-04T05:19:11.885Z" agent="Mozilla/5.0 (Macintosh; Intel Mac OS X 10_15_7) AppleWebKit/537.36 (KHTML, like Gecko) Chrome/121.0.0.0 Safari/537.36" version="24.0.1" etag="isEpAAf_gwlTzeWS-USw" type="github">
  <diagram name="Page-1" id="dq75dXu5aTwH1GvAwxR-">
    <mxGraphModel>
      <root>
        <mxCell id="0" />
        <mxCell id="1" parent="0" />
      </root>
    </mxGraphModel>
  </diagram>
</mxfile>
